<svg data-v-0dd9719b="" version="1.0" xmlns="http://www.w3.org/2000/svg" xmlns:xlink="http://www.w3.org/1999/xlink" width="100%" height="100%" viewBox="0 0 340.000000 250.000000" preserveAspectRatio="xMidYMid meet" color-interpolation-filters="sRGB" style="margin: auto;"> <rect data-v-0dd9719b="" x="0" y="0" width="100%" height="100%" fill="#ffffff" fill-opacity="1" class="background"></rect> <rect data-v-0dd9719b="" x="0" y="0" width="100%" height="100%" fill="url(#watermark)" fill-opacity="1" class="watermarklayer"></rect> <g data-v-0dd9719b="" fill="#383c93" class="icon-text-wrapper icon-svg-group iconsvg" transform="translate(46.5,90.50296783447266)"><g class="iconsvg-imagesvg" transform="translate(0,0)"><g><rect fill="#383c93" fill-opacity="0" stroke-width="2" x="0" y="0" width="60" height="68.99406651028012" class="image-rect"></rect> <svg filter="url(#colors844622866)" x="0" y="0" width="60" height="68.99406651028012" filtersec="colorsf2199661817" class="image-svg-svg primary" style="overflow: visible;"><svg xmlns="http://www.w3.org/2000/svg" viewBox="0 0 87.00979614257812 100.05228424072266"><title>资源 32</title><path d="M84.07 58a2 2 0 0 0-.44-1.39 26.84 26.84 0 0 0-4-5.34c-.91-.87-1.86-1.68-2.82-2.5-.47-.39-.54-.81-.11-1.19a21.94 21.94 0 0 0 5.65-7.4 25.34 25.34 0 0 0 2-7.41 18.7 18.7 0 0 0 0-4.23 26.83 26.83 0 0 1-.35-2.69c0-.28 0-.56-.08-.84a23.32 23.32 0 0 0-.57-2.81 8.39 8.39 0 0 1-.71-2.51c-3-7.75-10-13-14.5-15.67a38.11 38.11 0 0 0-4.29-1.74 45 45 0 0 0-7.7-1.76A40.56 40.56 0 0 0 50.33 0H0v23.17h23.1c.26 0 .53.07.76-.13.23 0 .47.05.7.05h24.36a21.6 21.6 0 0 1 4.81.44c2.07.47 3.88 1.35 4.87 3.38a10.07 10.07 0 0 1 .61 3.16 12 12 0 0 0 0 2.32 5.44 5.44 0 0 1-1.56 2.92 9.38 9.38 0 0 1-5.84 2.07c-3.75.27-7.51.07-11.27.12a2.31 2.31 0 0 0-.94.08 2.51 2.51 0 0 0-1-.07H0V100h23c.72 0 .81-.29.81-.9V61.78c0-2 0-2 2-2h15.88c.82 0 1.64 0 2.46-.06 2.14 0 4.28.06 6.42.06a15.81 15.81 0 0 1 7.88 1.7.23.23 0 0 0 .14 0c.26.25.52.51.8.75a8 8 0 0 1 2.1 8.77 7.78 7.78 0 0 1-2.71 3.49 13.45 13.45 0 0 1-7.09 2.25c-3.14.07-6.29 0-9.44 0-.79 0-1 .25-1 1v20.33c0 1.93 0 2 1.95 1.94a111.26 111.26 0 0 0 12.52-.36 23.25 23.25 0 0 0 4.21-.65 3.55 3.55 0 0 0 1.57-.3 2.85 2.85 0 0 0 1.4-.32 4.34 4.34 0 0 0 1.9-.47c.52-.19 1.13-.1 1.59-.49a3.27 3.27 0 0 0 .62-.07 33.5 33.5 0 0 0 9.47-4.92A17.91 17.91 0 0 0 80.94 88a1.41 1.41 0 0 0 .29-.25 24.3 24.3 0 0 0 4.44-9 1 1 0 0 0 .26-.64 48.7 48.7 0 0 0 .91-5.11 26.08 26.08 0 0 0-2.77-15zM5.15 22.25zm34.2-.25z" fill="#333"></path></svg></svg> <defs><filter id="colors844622866"><feColorMatrix type="matrix" values="0 0 0 0 0.21875  0 0 0 0 0.234375  0 0 0 0 0.57421875  0 0 0 1 0" class="icon-fecolormatrix"></feColorMatrix></filter> <filter id="colorsf2199661817"><feColorMatrix type="matrix" values="0 0 0 0 0.99609375  0 0 0 0 0.99609375  0 0 0 0 0.99609375  0 0 0 1 0" class="icon-fecolormatrix"></feColorMatrix></filter> <filter id="colorsb3078401550"><feColorMatrix type="matrix" values="0 0 0 0 0  0 0 0 0 0  0 0 0 0 0  0 0 0 1 0" class="icon-fecolormatrix"></feColorMatrix></filter></defs></g></g> <g transform="translate(67,15.59703254699707)"><g data-gra="path-name" fill-rule="" class="tp-name iconsvg-namesvg"><g transform="scale(1)"><g><path d="M3.97-37.8L0 0 27.66 0 29.46-17.15 27.91-19.83 30.03-22.45 31.62-37.8 3.97-37.8ZM24.62-22.45L7.73-22.45 8.76-32.5 25.65-32.5 24.62-22.45ZM22.82-5.3L5.92-5.3 7.16-17.15 24.05-17.15 22.82-5.3ZM31.62 0L34.35-26.27 58.3-26.27 55.47 0 31.62 0ZM39.24-20.91L37.55-5.3 50.68-5.3 52.33-20.91 39.24-20.91ZM72.82-26.27L79.67-26.27 64.84-11.33 63.66 0 58.3 0 61.03-26.27 66.39-26.27 65.61-18.8 72.82-26.27ZM82.45-26.27L79.67 0 102.75 0 104.55-5.3 85.7-5.3 86.21-10.66 105.12-10.66 106.76-26.27 82.45-26.27ZM100.69-15.55L86.73-15.55 87.3-20.91 101.25-20.91 100.69-15.55ZM106.76 0L109.55-26.27 133.85-26.27 131.85-7.67 131.54 0 126.85 0 126.75-2.63 121.29 0 106.76 0ZM114.39-20.91L112.69-5.3 121.8-5.3 126.49-7.73 127.83-20.91 114.39-20.91ZM137.77-37.8L133.85 0 142.3 0 144.1-5.3 139.78-5.3 143.18-37.8 137.77-37.8ZM147.55-32.45L152.91-32.45 153.48-37.8 148.12-37.8 147.55-32.45ZM149.46 0L152.65-29.82 147.24-29.82 144.1 0 149.46 0ZM153.48-5.3L154.2 0 177.17 0 178.87-16.02 159.97-16.02 160.53-20.91 179.43-20.91 180-26.27 155.69-26.27 154.04-10.66 172.94-10.66 172.38-5.3 153.48-5.3Z" transform="translate(0, 37.79999923706055)"></path></g> <!----> <!----> <!----> <!----> <!----> <!----> <!----></g></g> <!----></g></g></svg>